<svg xmlns="http://www.w3.org/2000/svg" viewBox="0 0 55.99 83.64"><defs><style>.cls-1{fill:#fff;fill-rule:evenodd;}</style></defs><title>logo_sp</title><g id="レイヤー_2" data-name="レイヤー 2"><g id="logo_sp.svg" data-name="logo sp.svg"><path id="シェイプ_2" data-name="シェイプ 2" class="cls-1" d="M8.89,74.57a2.48,2.48,0,0,0,0-.94,2.51,2.51,0,0,0-.33-.86,2.09,2.09,0,0,0-.64-.65A2.46,2.46,0,0,0,6,71.79a2.25,2.25,0,0,0-.79.39,2.39,2.39,0,0,0-.57.69,2.89,2.89,0,0,0-.32,1.85,2.17,2.17,0,0,0,.3.85,2.1,2.1,0,0,0,1.51,1,2.12,2.12,0,0,0,1,0,2.32,2.32,0,0,0,.82-.4,2.27,2.27,0,0,0,.59-.68A2.69,2.69,0,0,0,8.89,74.57ZM11.18,79a6.86,6.86,0,0,1-.83,2.36,4.58,4.58,0,0,1-1.43,1.51,4.82,4.82,0,0,1-1.94.7,7.78,7.78,0,0,1-2.36-.07,9.34,9.34,0,0,1-2.52-.84A7.16,7.16,0,0,1,0,81.16l2-2a4.64,4.64,0,0,0,1.36,1.17A4.62,4.62,0,0,0,4.9,81a2.63,2.63,0,0,0,2.16-.36,2.89,2.89,0,0,0,1-1.81l.1-.58H8.1a3,3,0,0,1-1.35.71A4,4,0,0,1,5,79a4.83,4.83,0,0,1-1.86-.73A4.27,4.27,0,0,1,1.9,76.91a4.8,4.8,0,0,1-.62-1.72,5.69,5.69,0,0,1,0-1.93A6.1,6.1,0,0,1,2,71.42,4.71,4.71,0,0,1,3.12,70a4.31,4.31,0,0,1,1.61-.85,4.42,4.42,0,0,1,2-.08,4.31,4.31,0,0,1,1.66.67A3,3,0,0,1,9.49,71.1h0l.21-1.22,3,.52Zm11.1-7.57h-.42a2.57,2.57,0,0,0-.4,0,2.23,2.23,0,0,0-1,.41,2.15,2.15,0,0,0-.59.68,1.89,1.89,0,0,0-.25.77,2.66,2.66,0,0,0,0,.69l.86,4.87-3.13.55L15.65,70l3-.53.24,1.38h0a3.14,3.14,0,0,1,.82-1.38,2.64,2.64,0,0,1,1.47-.73,2.35,2.35,0,0,1,.37,0,1.5,1.5,0,0,1,.3,0Zm10,2.77a2.8,2.8,0,0,0-.15-.91,2.39,2.39,0,0,0-.45-.79A2.23,2.23,0,0,0,31,72a2.17,2.17,0,0,0-1-.21,2.14,2.14,0,0,0-1.7.76,2.52,2.52,0,0,0-.43.79,3,3,0,0,0,0,1.82,2.72,2.72,0,0,0,.44.8,2.09,2.09,0,0,0,.72.57,2.34,2.34,0,0,0,2,0,2.09,2.09,0,0,0,.72-.57,2.48,2.48,0,0,0,.43-.8,2.8,2.8,0,0,0,.15-.91Zm3.07,0a5.22,5.22,0,0,1-.43,2.14A4.84,4.84,0,0,1,33.77,78a5.1,5.1,0,0,1-1.7,1,5.9,5.9,0,0,1-4.14,0,5.25,5.25,0,0,1-1.71-1,4.93,4.93,0,0,1-1.15-1.63,5.54,5.54,0,0,1,0-4.28,5,5,0,0,1,1.15-1.61,5.19,5.19,0,0,1,1.71-1,6.38,6.38,0,0,1,4.14,0,5.22,5.22,0,0,1,1.7,1,4.77,4.77,0,0,1,1.17,1.61,5.08,5.08,0,0,1,.42,2.14Zm9.26,5.13-1.58-3.25-2.58,2.58-3.63-.58,4.61-4.38-2.71-5.1,3.66.6L43.76,72,46,69.78l3.54.58-4.16,4,3,5.6Zm7.5-.2.34-9.65,3.18.12-.34,9.65ZM56,66.53a1.59,1.59,0,0,1-.17.68,1.72,1.72,0,0,1-1,.89,1.92,1.92,0,0,1-.71.11,1.76,1.76,0,0,1-1.28-.56,1.66,1.66,0,0,1-.48-1.25,1.69,1.69,0,0,1,.16-.66,1.52,1.52,0,0,1,.4-.54,2,2,0,0,1,.6-.35,1.81,1.81,0,0,1,.73-.12,1.71,1.71,0,0,1,.7.16,2,2,0,0,1,.57.38,1.9,1.9,0,0,1,.36.57A1.62,1.62,0,0,1,56,66.53Z"/><path id="シェイプ_1" data-name="シェイプ 1" class="cls-1" d="M39.7,6.51c12.46-3.94,9.59,4.62,5.93,9.38-3.23,4.22-2.7,9.41,5.24,9.31s5.87,5.32-1.25,7.69c-9.95,3.32-12.5,11.33-12.06,19.34.28,5.12-3.63,5.8-10-3.82-5.37-8.1-9.61-9.37-18.54-9-9.3.41-13.56-10-2-14.07,9.32-3.31,10.5-6,8.79-11.08-3.36-9.91-.86-18.37,5.89-12.2C28.11,8,29.49,9.75,39.7,6.51Z"/></g></g></svg>