<svg xmlns="http://www.w3.org/2000/svg" width="32" height="47.781" viewBox="0 0 32 47.781"><defs><filter id="a" x="97" y="218" width="32" height="10.781" filterUnits="userSpaceOnUse"><feFlood result="flood" flood-color="#fff"/><feComposite result="composite" operator="in" in2="SourceGraphic"/><feBlend result="blend" in2="SourceGraphic"/></filter><filter id="b" x="97.031" y="181" width="31.969" height="31.938" filterUnits="userSpaceOnUse"><feFlood result="flood" flood-color="#fff"/><feComposite result="composite" operator="in" in2="SourceGraphic"/><feBlend result="blend" in2="SourceGraphic"/></filter></defs><path data-name="シェイプ 2" d="M102.085 223.622a1.48 1.48 0 0 0 0-.539 1.384 1.384 0 0 0-.189-.489 1.24 1.24 0 0 0-.363-.373 1.351 1.351 0 0 0-.527-.207 1.3 1.3 0 0 0-.559.015 1.246 1.246 0 0 0-.451.225 1.28 1.28 0 0 0-.328.393 1.672 1.672 0 0 0-.186 1.058 1.328 1.328 0 0 0 .174.487 1.216 1.216 0 0 0 .864.584 1.319 1.319 0 0 0 .572-.017 1.364 1.364 0 0 0 .469-.227 1.347 1.347 0 0 0 .337-.391 1.555 1.555 0 0 0 .187-.519zm1.308 2.538a3.873 3.873 0 0 1-.474 1.345 2.625 2.625 0 0 1-.817.862 2.694 2.694 0 0 1-1.111.4 4.379 4.379 0 0 1-1.348-.04 5.453 5.453 0 0 1-1.439-.479 4.119 4.119 0 0 1-1.2-.865l1.119-1.118a2.666 2.666 0 0 0 .776.67 2.785 2.785 0 0 0 .9.333 1.515 1.515 0 0 0 1.235-.21 1.606 1.606 0 0 0 .572-1.035l.058-.328h-.033a1.81 1.81 0 0 1-.768.406 2.362 2.362 0 0 1-1.006.025 2.618 2.618 0 0 1-1.064-.418 2.47 2.47 0 0 1-.706-.749 2.686 2.686 0 0 1-.35-.978 3.265 3.265 0 0 1 .015-1.106 3.339 3.339 0 0 1 .365-1.048 2.751 2.751 0 0 1 .668-.817 2.542 2.542 0 0 1 .922-.484 2.5 2.5 0 0 1 1.132-.042 2.409 2.409 0 0 1 .945.38 1.744 1.744 0 0 1 .64.776h.023l.123-.7 1.691.3zm6.342-4.33a1.621 1.621 0 0 0-.241 0 2.607 2.607 0 0 0-.227.028 1.3 1.3 0 0 0-.582.236 1.267 1.267 0 0 0-.338.386 1.181 1.181 0 0 0-.141.441 1.344 1.344 0 0 0 0 .393l.494 2.786-1.789.315-.958-5.428 1.724-.3.138.786.023-.005a1.79 1.79 0 0 1 .469-.786 1.543 1.543 0 0 1 .836-.421c.073-.012.144-.022.214-.027a.813.813 0 0 1 .174 0zm5.726 1.583a1.625 1.625 0 0 0-.088-.522 1.378 1.378 0 0 0-.255-.448 1.29 1.29 0 0 0-.408-.315 1.264 1.264 0 0 0-.567-.121 1.25 1.25 0 0 0-.565.121 1.224 1.224 0 0 0-.405.315 1.379 1.379 0 0 0-.245.448 1.683 1.683 0 0 0 0 1.044 1.439 1.439 0 0 0 .25.458 1.251 1.251 0 0 0 .411.328 1.272 1.272 0 0 0 .567.121 1.256 1.256 0 0 0 .564-.121 1.219 1.219 0 0 0 .411-.328 1.438 1.438 0 0 0 .249-.458 1.765 1.765 0 0 0 .081-.522zm1.751 0a2.961 2.961 0 0 1-.244 1.225 2.753 2.753 0 0 1-.665.93 3.044 3.044 0 0 1-.976.592 3.413 3.413 0 0 1-2.363 0 2.97 2.97 0 0 1-.976-.592 2.811 2.811 0 0 1-.66-.93 2.961 2.961 0 0 1-.244-1.225 2.928 2.928 0 0 1 .244-1.22 2.79 2.79 0 0 1 .66-.92 2.886 2.886 0 0 1 .976-.577 3.607 3.607 0 0 1 2.363 0 2.955 2.955 0 0 1 .976.577 2.744 2.744 0 0 1 .665.92 2.928 2.928 0 0 1 .244 1.22zm5.3 2.933l-.9-1.862-1.474 1.479-2.079-.335 2.638-2.5-1.549-2.911 2.089.338.781 1.618 1.262-1.288 2.024.327-2.376 2.276 1.693 3.2zm4.284-.113l.2-5.514 1.817.066-.2 5.513zm2.21-7.207a.937.937 0 0 1-.1.39.992.992 0 0 1-.572.507 1.063 1.063 0 0 1-.406.063 1.022 1.022 0 0 1-.731-.32.955.955 0 0 1-.275-.713.972.972 0 0 1 .091-.378.918.918 0 0 1 .232-.308 1.14 1.14 0 0 1 .34-.2A1.029 1.029 0 0 1 128 218a1.068 1.068 0 0 1 .4.091 1.032 1.032 0 0 1 .325.221 1 1 0 0 1 .209.323.942.942 0 0 1 .066.391z" transform="translate(-97 -181)" filter="url(#a)" fill="#959597" fill-rule="evenodd"/><path data-name="シェイプ 1" d="M119.693 184.731c7.116-2.255 5.478 2.635 3.389 5.357-1.851 2.413-1.542 5.377 2.993 5.323s3.352 3.04-.712 4.392c-5.691 1.9-7.145 6.476-6.895 11.052.158 2.923-2.076 3.315-5.724-2.183-3.072-4.631-5.49-5.353-10.6-5.123-5.311.238-7.746-5.7-1.155-8.038 5.327-1.891 6-3.432 5.023-6.333-1.917-5.662-.488-10.5 3.368-6.973 3.689 3.365 4.477 4.376 10.313 2.526z" transform="translate(-97 -181)" filter="url(#b)" fill="#959597" fill-rule="evenodd"/></svg>