<?xml version="1.0" encoding="UTF-8"?>
<svg xmlns="http://www.w3.org/2000/svg" version="1.1" viewBox="0 0 117.7 31.8">
  <defs>
    <style>
      .cls-1 {
        fill: #ed1c24;
      }

      .cls-2 {
        fill: #fff;
      }
    </style>
  </defs>
  <!-- Generator: Adobe Illustrator 28.7.4, SVG Export Plug-In . SVG Version: 1.2.0 Build 166)  -->
  <g>
    <g id="logo_2.svg">
      <g>
        <g>
          <path class="cls-2" d="M19.8,6.8l.7,6.1c.2,1.4.3,2.4.4,3.3h0c.3-.9.6-1.8,1.2-3.3l2.4-6.1h4.2l-4.8,10c-1.8,3.6-3.4,6.1-5.2,7.8-1.5,1.4-3.2,2.1-4.1,2.2l-1-3.4c.6-.2,1.5-.6,2.3-1.1.9-.6,1.7-1.5,2.2-2.3.1-.2.1-.4,0-.7l-2.5-12.6h4.2Z"/>
          <path class="cls-2" d="M33.7,1.6l-1.4,6.8h0c1-1.2,2.4-2,4.1-2,2.8,0,3.9,2.4,3.9,4.7,0,4.6-2.9,9.7-8.9,9.7s-4.7-1.3-4.7-3.7c0-.8.1-1.7.3-2.4l2.6-13.1s4,0,4,0ZM31.1,14.9c0,.5-.2.9-.2,1.5,0,.9.5,1.5,1.4,1.5,2.3,0,3.8-3.5,3.8-5.8s-.5-2.3-1.7-2.3-2.7,1.4-3.2,3.7l-.3,1.5Z"/>
          <path class="cls-2" d="M61.3,6.5c-1.2,0-3.2.8-4.1,2.3h0c.2-1,.3-1.2.4-2h-3.6c-.2,1.2-.5,3.4-.8,5.4l-.5,2.5c-1.3,1.7-4.7,3-6,3s-2-.4-2.5-1c-.3-.4-.4-1-.4-1.4,5.2.1,8.6-1.2,8.6-4.7,0-2.5-1.9-4.1-4.6-4.1-4.9,0-7.8,4.5-7.8,8.6s1.9,5.7,5.8,5.7c1.9,0,4.7-1,6.3-2.1l-.3,1.8h4l1-5.3c.5-2.6,1.7-4.8,4.2-4.8s.4,0,.6,0l.8-3.9c-.2,0-.5,0-.7,0ZM47.1,9.4c.9,0,1.4.5,1.4,1.1h0c0,1.3-1.6,1.8-4.5,1.7.3-1.4,1.3-2.9,3.1-2.9Z"/>
          <path class="cls-2" d="M64.3,1.6h4l-2.9,15.5h6.8l-.7,3.5h-10.8l3.6-19Z"/>
          <path class="cls-2" d="M72.7,20.5l2.6-13.8h4l-2.6,13.8h-4Z"/>
          <path class="cls-2" d="M78.6,20.5l1.8-9.3c.3-1.7.6-3.2.7-4.5h3.5l-.2,2.2h0c1.2-1.7,2.9-2.5,4.6-2.5s3.4,1.4,3.4,3.6-.1,1.7-.2,2.4l-1.5,8.1h-4l1.5-7.8c0-.5.2-1,.2-1.5,0-.9-.3-1.6-1.3-1.6s-2.7,1.6-3.2,4.5l-1.2,6.3h-4Z"/>
          <path class="cls-2" d="M92.3,20.5l3.6-19h4l-1.9,10h0c.4-.5,4.4-4.8,4.4-4.8h4.8l-5.6,5.8,3.5,8h-4.4l-3-7.3-1.4,7.3h-4Z"/>
          <path class="cls-2" d="M77.8,4.9c-1.2,0-2-.9-2-2.1,0-1.4,1.1-2.5,2.5-2.5s2.1.9,2.1,2.1c0,1.6-1.2,2.5-2.5,2.5,0,0,0,0,0,0Z"/>
        </g>
        <path class="cls-2" d="M15.4,2c-1.1-.5-2.2-.7-3.8-.7-3,0-5.2.8-7.3,2.5-1.2,1-2.2,2.2-2.9,3.6-.8,1.6-1.2,3.3-1.2,5,0,5.2,3.3,8.3,8.7,8.3s1.8,0,2.9-.3c1.2-.2,1.8-.5,3.1-1.1h.2c0,0-.9-3.4-.9-3.4h-.3c-1,.6-1.5.7-2.2.9-.7.1-1.3.2-1.9.2-3.3,0-5.3-1.9-5.3-4.9,0-4.1,3-7.4,6.9-7.4s1.6.2,2.3.4c.5.2.8.4,1.3.7l1.9-3.1c-.6-.5-1-.7-1.6-.9Z"/>
      </g>
      <path class="cls-1" d="M107.3,16.5c6.5,1.6,10.4,3.5,10.4,5.9,0,5-17.4,9-38.8,9s-31.7-3.2-37.1-6.7v-.6c6.5,2.2,18.8,3.8,32.9,3.8,20.6,0,37.3-3.2,37.3-7.2s-1.8-2.6-5-3.6l.3-.5Z"/>
    </g>
  </g>
</svg>