<?xml version="1.0" encoding="UTF-8"?>
<svg id="_圖層_1" data-name="圖層_1" xmlns="http://www.w3.org/2000/svg" version="1.1" viewBox="0 0 32 32">
  <!-- Generator: Adobe Illustrator 29.2.1, SVG Export Plug-In . SVG Version: 2.1.0 Build 116)  -->
  <defs>
    <style>
      .st0 {
        fill: #fff;
        fill-rule: evenodd;
      }
    </style>
  </defs>
  <g id="action">
    <g id="action_005-open-new-tab-arrow-window">
      <g>
        <path id="Shape" class="st0" d="M25.2,14.8c.6,0,1.2-.5,1.2-1.2v-6.9c0-.6-.5-1.2-1.2-1.2h-6.9c-.6,0-1.2.5-1.2,1.2s.5,1.2,1.2,1.2h4.1l-7.3,7.3c-.5.5-.5,1.2,0,1.6s1.2.5,1.6,0l7.3-7.3v4.1c0,.6.5,1.2,1.2,1.2Z"/>
        <path id="shape" class="st0" d="M24.1,21.8v6.9c0,1.3-1,2.3-2.3,2.3H3.3c-1.3,0-2.3-1-2.3-2.3V10.2c0-1.3,1-2.3,2.3-2.3h6.9v2.3H3.3v18.5h18.5v-6.9h2.3Z"/>
        <path id="Shape1" data-name="Shape" class="st0" d="M28.7,1c1.3,0,2.3,1,2.3,2.3v18.5c0,1.3-1,2.3-2.3,2.3H10.2c-1.3,0-2.3-1-2.3-2.3V3.3c0-1.3,1-2.3,2.3-2.3h18.5ZM10.2,3.3h18.5v18.5H10.2V3.3Z"/>
      </g>
    </g>
  </g>
</svg>